# xmcd CD database file
#
# Track frame offsets:
#	150
#	12702
#	26787
#	39590
#	53722
#	65780
#	76662
#	87280
#	98047
#	111882
#	122572
#	134257
#	146440
#	158012
#	169390
#	181085
#	194910
#	207077
#
# Disc length: 2895 seconds
#
# Revision: 0
# Processed by: cddbd v1.4PL0 Copyright (c) Steve Scherf et al.
# Submitted via: CDex 1.40Beta8
#
DISCID=fa0b4d12
DTITLE=Charles, Ray - C.C. Rider
DYEAR=1900
DGENRE=Blues
TTITLE0=I'm Glad For Your Sake
TTITLE1=Walking and Talking
TTITLE2=The Snow Is Falling
TTITLE3=Blues Is My Middle Name
TTITLE4=C.C. Rider
TTITLE5=I Wonder Who's Kissing Her Now
TTITLE6=Hey Now
TTITLE7=Sittin On Top Of the World
TTITLE8=I'm Gonna Drown Myself
TTITLE9=They're Crazy Aboot Me
TTITLE10=Baby Tell Me What Have I Done
TTITLE11=Honey Honey
TTITLE12=Ray Charles Blues
TTITLE13=She's On the Ball
TTITLE14=How Long
TTITLE15=Hey Someday
TTITLE16=Goin Down Slow
TTITLE17=Rockin Chair Blues
EXTD=ID3G: 0
EXTT0=
EXTT1=
EXTT2=
EXTT3=
EXTT4=
EXTT5=
EXTT6=
EXTT7=
EXTT8=
EXTT9=
EXTT10=
EXTT11=
EXTT12=
EXTT13=
EXTT14=
EXTT15=
EXTT16=
EXTT17=
PLAYORDER=
